<?xml version="1.0" standalone="no"?><!DOCTYPE svg PUBLIC "-//W3C//DTD SVG 1.1//EN" "http://www.w3.org/Graphics/SVG/1.1/DTD/svg11.dtd"><svg t="1611889732435" class="icon" viewBox="0 0 1024 1024" version="1.1" xmlns="http://www.w3.org/2000/svg" p-id="2278" xmlns:xlink="http://www.w3.org/1999/xlink" width="200" height="200"><defs><style type="text/css"></style></defs><path d="M0.00192 533.185841c50.143812 72.03173 95.99964 135.99949 166.207377 212.607202 54.975794 56.575788 92.607653 90.111662 134.911494 123.999535 113.823573 90.879659 230.591135 83.487687 330.078762 6.495976 59.007779-45.599829 160.671397-138.079482 254.495046-228.671143 6.143977-6.527976 13.567949-8.12797 20.575922-2.111992a809.116966 809.116966 0 0 1 59.391778 64.287759c-31.039884 33.983873-153.183426 146.815449-248.03107 223.423162-125.759528 101.663619-259.135028 91.199658-327.518772 55.199793-51.615806-27.071898-132.159504-72.383729-259.679026-221.34317-64.319759-75.071718-108.607593-151.135433-118.719555-171.423357a82.367691 82.367691 0 0 1-5.951978-17.599934A212.607203 212.607203 0 0 1 0.00192 535.361832z m7.455972-104.415609c22.431916 32.383879 152.799427 206.079227 300.190874 316.478813 60.703772 45.535829 126.975524 41.215845 183.871311-7.039973 20.287924-16.351939 171.199358-149.34344 245.15108-223.775161 10.975959-11.071958 23.743911-12.927952 34.239872-3.903985a717.565309 717.565309 0 0 1 67.583747 63.423762c-37.663859 42.65584-229.727139 221.023171-276.382964 255.103043-74.399721 54.303796-148.991441 43.327838-213.663199 8.06397C291.968825 806.400816 144.865377 683.265278 6.593895 483.618026c-7.359972-10.815959-4.575983-23.743911-4.479983-24.607907 2.015992-14.335946 5.34398-30.239887 5.34398-30.239887z m650.493561-108.063595c25.695904-0.415998 51.647806 10.239962 77.855708 31.455882 37.34386 30.239887 172.415353 152.543428 262.815014 272.12698 1.759993 2.367991 4.671982 7.423972 1.279995 16.383938-4.159984 10.879959-11.967955 26.815899-11.967955 26.8159-0.383999-0.415998-32.447878-41.855843-74.463721-86.143677-57.183786-60.255774-105.471604-104.959606-135.231492-130.399511-18.62393-15.807941-35.423867-23.711911-51.391808-24.415908-18.079932-0.607998-34.175872 7.135973-46.783824 18.879929-3.743986 3.583987-11.295958 10.527961-21.47192 19.743926-47.679821 44.159834-148.191444 136.319489-201.855243 181.535319a1452.474553 1452.474553 0 0 1-18.55993 16.415938c-22.015917 19.199928-46.847824 29.759888-72.543728 30.111887-25.695904 0.351999-52.319804-9.503964-77.823708-31.423882C148.481363 541.697809 47.361742 420.770262 25.281825 389.026381c-1.695994-2.431991-4.735982-8.06397-1.215995-16.959936 4.159984-10.71996 11.679956-26.175902 11.679956-26.175902s33.631874 40.895847 74.367721 86.623675c66.239752 74.431721 122.879539 118.943554 135.263493 130.367511 17.919933 16.639938 35.391867 23.775911 51.327807 24.415909 18.079932 0.607998 34.175872-7.103973 46.783825-18.911929 3.775986-3.487987 169.663364-156.031415 223.359162-201.215246 6.143977-5.503979 12.319954-10.975959 18.495931-16.415938l6.079977-5.023981c20.479923-15.99994 43.135838-24.767907 66.495751-25.023907z m-196.095265-135.90349c74.399721-54.303796 148.991441-43.327838 213.663199-8.09597 56.479788 30.719885 203.583237 153.919423 341.822718 353.566674 7.359972 10.847959 4.639983 23.775911 4.543983 24.575908-2.047992 14.367946-5.34398 30.303886-5.34398 30.303887-22.463916-32.383879-152.799427-206.143227-300.158874-316.542813-60.735772-45.503829-127.039524-41.215845-183.903311 7.103973-20.319924 16.255939-171.263358 149.31144-245.21508 223.679161-10.943959 11.135958-23.711911 12.959951-34.207872 3.935986a720.765297 720.765297 0 0 1-67.583747-63.391763c37.695859-42.65584 229.759138-221.055171 276.382964-255.135043zM306.336771 80.643538C432.0963-21.020081 565.4398-10.55612 633.887543 25.411745c51.615806 27.103898 132.127505 72.415728 259.615026 221.37517 64.319759 75.071718 108.671592 151.167433 118.719555 171.327357 3.135988 6.335976 5.055981 13.31195 5.983978 17.663934 5.535979 25.599904 5.791978 44.895832 5.791978 44.895831-50.175812-72.09573-95.99964-136.03149-166.271376-212.607202-54.943794-56.575788-92.543653-90.079662-134.911495-123.999535-113.823573-90.943659-230.527136-83.455687-330.078762-6.527976-58.943779 45.663829-160.639398 138.111482-254.495045 228.703143-6.111977 6.527976-13.535949 8.09597-20.479924 2.143992-36.351864-35.551867-59.455777-64.319759-59.455777-64.319759 31.039884-33.951873 153.183426-146.78345 247.99907-223.423162z" fill="#ffffff" p-id="2279" data-spm-anchor-id="a313x.7781069.0.i1" class="selected"></path></svg>